<svg id="_3rd_version" data-name="3rd version" xmlns="http://www.w3.org/2000/svg" width="579.803" height="90.638" viewBox="0 0 1579.844 246.97">
  <metadata><?xpacket begin="﻿" id="W5M0MpCehiHzreSzNTczkc9d"?>
<x:xmpmeta xmlns:x="adobe:ns:meta/" x:xmptk="Adobe XMP Core 5.6-c140 79.160451, 2017/05/06-01:08:21        ">
   <rdf:RDF xmlns:rdf="http://www.w3.org/1999/02/22-rdf-syntax-ns#">
      <rdf:Description rdf:about=""/>
   </rdf:RDF>
</x:xmpmeta>
                                                                                                    
                                                                                                    
                                                                                                    
                                                                                                    
                                                                                                    
                                                                                                    
                                                                                                    
                                                                                                    
                                                                                                    
                                                                                                    
                                                                                                    
                                                                                                    
                                                                                                    
                                                                                                    
                                                                                                    
                                                                                                    
                                                                                                    
                                                                                                    
                                                                                                    
                                                                                                    
                           
<?xpacket end="w"?></metadata>
<defs>
    <style>
      .cls-1 {
        fill: #4698b3;
      }

      .cls-2 {
        fill: #bd2a2c;
      }

      .cls-3 {
        fill: #58b34b;
      }

      .cls-4 {
        fill: #1c2811;
        fill-rule: evenodd;
      }
    </style>
  </defs>
  <circle class="cls-1" cx="89.891" cy="164.675" r="70.672"/>
  <circle id="Ellipse_5_copy" data-name="Ellipse 5 copy" class="cls-2" cx="779.891" cy="164.675" r="70.672"/>
  <circle id="Ellipse_5_copy_2" data-name="Ellipse 5 copy 2" class="cls-3" cx="1071.894" cy="164.675" r="70.67"/>
  <path id="bemalol" class="cls-4" d="M228.225,1244.74c-25.929,0-45.542,10.64-58.174,27.93v-90.09h-35.9v232.69h35.9v-23.93c12.632,17.62,32.245,28.25,58.174,28.25,45.21,0,82.773-38.22,82.773-87.42C311,1282.64,273.435,1244.74,228.225,1244.74Zm-5.651,140.61c-29.919,0-52.523-22.27-52.523-53.18s22.6-53.19,52.523-53.19,52.523,22.27,52.523,53.19S252.492,1385.35,222.574,1385.35Zm155.248-37.89H510.127a108.687,108.687,0,0,0,1.33-14.96c0-47.87-33.908-87.76-83.439-87.76-52.19,0-87.76,38.23-87.76,87.43,0,49.86,35.57,87.42,90.42,87.42,32.577,0,57.509-13.63,72.8-36.23l-29.585-17.29c-7.979,11.64-22.938,20.61-42.883,20.61C404.416,1386.68,383.473,1373.39,377.822,1347.46Zm-0.332-29.25c4.986-24.93,23.269-40.89,50.2-40.89,21.607,0,42.55,12.3,47.536,40.89H377.49Zm350.472-73.47c-22.273,0-39.891,8.98-50.861,26.26-9.641-16.62-25.6-26.26-47.205-26.26-20.61,0-36.9,7.98-47.536,24.27v-19.95h-35.9v166.21h35.9V1322.2c0-30.25,16.621-43.88,36.9-43.88,19.613,0,31.248,12.96,31.248,36.23v100.72h35.9V1322.2c0-30.25,14.959-43.88,36.234-43.88,19.613,0,32.245,12.96,32.245,36.23v100.72h35.9V1312.22C790.79,1270.67,765.526,1244.74,727.962,1244.74Zm239.654,4.32v23.61c-12.632-17.29-32.245-27.93-58.174-27.93-45.209,0-82.773,37.9-82.773,87.43,0,49.2,37.564,87.42,82.773,87.42,25.929,0,45.542-10.63,58.174-28.25v23.93h35.9V1249.06h-35.9Zm-52.523,136.29c-29.918,0-52.523-22.27-52.523-53.18s22.6-53.19,52.523-53.19,52.523,22.27,52.523,53.19S945.012,1385.35,915.093,1385.35Zm136.3,29.92h35.91V1172.61h-35.91v242.66Zm164.2,4.32c48.86,0,87.76-38.22,87.76-87.42,0-49.53-38.9-87.43-87.76-87.43-48.54,0-87.76,37.9-87.76,87.43C1127.83,1381.37,1167.05,1419.59,1215.59,1419.59Zm0-34.9c-29.26,0-51.86-22.27-51.86-52.52s22.6-52.52,51.86-52.52,51.85,22.27,51.85,52.52S1244.84,1384.69,1215.59,1384.69Zm136.96,30.58h35.9V1172.61h-35.9v242.66Z" transform="translate(-134.156 -1172.62)"/>
  <path id="_.uz" data-name=".uz" class="cls-4" d="M1451.5,1410.92a16.23,16.23,0,0,0,0-32.46A16.23,16.23,0,0,0,1451.5,1410.92Zm126.74-110.8v58c0,22.07-12.12,31.16-27.48,31.16-14.72,0-24.24-8.66-24.24-25.1v-64.06h-23.37v66.44c0,28.13,17.31,44.58,41.55,44.58,14.71,0,26.4-5.41,33.54-16.67v13.85h23.38v-108.2h-23.38Zm83.17,86.13,50.43-70.55v-15.58h-80.08v22.07h48.48l-50.64,70.55v15.58H1714v-22.07h-52.59Z" transform="translate(-134.156 -1172.62)"/>
</svg>
