<svg width="95" height="99" viewBox="0 0 95 99" fill="none" xmlns="http://www.w3.org/2000/svg">
    <rect width="95" height="99" fill="white"/>
    <path d="M48.5106 89.9082C64.1391 89.9082 76.8085 77.6965 76.8085 62.6327C76.8085 47.5688 64.1391 35.3571 48.5106 35.3571C32.8822 35.3571 20.2128 47.5688 20.2128 62.6327C20.2128 77.6965 32.8822 89.9082 48.5106 89.9082Z" fill="#4698B3"/>
    <path fill-rule="evenodd" clip-rule="evenodd" d="M49.7604 27.1405C39.3879 27.1405 31.5421 31.2674 26.4889 37.9737V3.03061H12.1277V93.2836H26.4889V84.0019C31.5421 90.8361 39.3879 94.9592 49.7604 94.9592C67.8459 94.9592 82.8723 80.1349 82.8723 61.0518C82.8731 41.8407 67.8459 27.1405 49.7604 27.1405ZM47.4998 81.6786C35.5312 81.6786 26.4889 73.0408 26.4889 61.0518C26.4889 49.0628 35.5296 40.4211 47.4998 40.4211C59.47 40.4211 68.5107 49.0589 68.5107 61.0518C68.5107 73.0447 59.468 81.6786 47.4998 81.6786Z" fill="#1C2811"/>
</svg>
