<?xml version="1.0" encoding="utf-8"?>
<!-- Generator: Adobe Illustrator 22.0.0, SVG Export Plug-In . SVG Version: 6.00 Build 0)  -->
<svg version="1.1" id="Objects" xmlns="http://www.w3.org/2000/svg" xmlns:xlink="http://www.w3.org/1999/xlink" x="0px" y="0px"
	 viewBox="0 0 278.5 149" style="enable-background:new 0 0 278.5 149;" xml:space="preserve">
<style type="text/css">
	.st0{fill:#F0F6F7;}
	.st1{fill:#C0D0D8;}
	.st2{fill:#EFF4F4;}
	.st3{fill:#808791;}
	.st4{fill:#C7D8E2;}
	.st5{fill:#DCE8EF;}
	.st6{fill:#F0F7F7;}
	.st7{fill:#CEE8EF;}
	.st8{fill:#B2CAD3;}
	.st9{fill:#799DD3;}
	.st10{opacity:0.3;fill:#FFFFFF;enable-background:new    ;}
	.st11{fill:#CAD3DB;}
	.st12{fill:#D8E1EA;}
	.st13{fill:#FAC55D;}
	.st14{fill:#FFFFFF;}
	.st15{fill:#C97841;}
	.st16{fill:#5C81B7;}
	.st17{fill:#A5BDD6;}
	.st18{fill:#C4CBD6;}
	.st19{fill:#D76350;}
	.st20{fill:#B15647;}
	.st21{fill:#C99A50;}
	.st22{fill:#FDCB72;}
	.st23{fill:#B5B5B5;}
	.st24{fill:#C8CDCE;}
	.st25{fill:#6F7475;}
	.st26{fill:#E2E2E2;}
	.st27{fill:#D6DDEA;}
	.st28{fill:#ED9558;}
	.st29{fill:#ED8C62;}
	.st30{fill:#FFAF84;}
	.st31{fill:#E8E8E8;}
	.st32{fill:#3962A8;}
	.st33{fill:#2D548C;}
	.st34{fill:#658BC1;}
	.st35{fill:#C8D6DB;}
	.st36{fill:#82AACE;}
	.st37{fill:#4E7CAF;}
	.st38{fill:#424344;}
</style>
<g>
	<path class="st0" d="M82.5,35.3c20.1,9.4,29.8,3.2,37.6,12.4c5.8,7.1,1.8,26.9,3.9,41.8c4.7,32.8,25.1,40.9,41.1,36.7
		c15.9-4.1,31.1-19.2,23.5-53.8c-1.2-5.3-0.9-9.1,1.2-14.2c3.6-8.9,12.1-13.1,13.3-13.7c17.6-8.4,32.4,12.2,49,7.2
		c15.2-4.6,27.1-29.1,24.6-51.7H54.6c0,6.4,1.3,12.4,4.1,17.3C64.2,26.8,74.9,31.8,82.5,35.3z"/>
	<g>
		<g>
			<g>
				<g>
					<g>
						<path class="st1" d="M137.9,33.2c-4.3,0-7.9,3.5-7.9,8s3.7,8,8,8s7.9-3.6,7.9-8C145.9,36.8,142.2,33.2,137.9,33.2z"/>
						<path class="st2" d="M138.2,33.8c-0.5,0-1,0-1.4,0.1c-0.7,0.2-1.3,0.4-1.9,0.7c-0.3,0.2-0.6,0.3-0.8,0.5
							c-1.2,0.7-2,1.7-2.6,2.9c-0.6,1-0.8,2-0.8,3.2c0,3.3,2.1,6,5.1,7c0.6,0.2,1.3,0.3,2.1,0.3c0.3,0,0.7-0.1,1.1-0.1
							c0.2,0,0.4-0.1,0.6-0.1c0.3,0,0.6-0.1,0.9-0.2c0.7-0.3,1.2-0.6,1.8-1c1.9-1.4,3-3.5,3-5.9c0-0.9-0.2-1.8-0.3-2.7
							C144,35.8,141.3,33.8,138.2,33.8z"/>
						<path class="st3" d="M135.8,37.9c-0.1-0.1-0.4-0.2-0.5,0c-0.2,0.1-0.2,0.3-0.1,0.5l2.4,3c0.1,0.2,0.2,0.2,0.3,0.2
							c0.2,0,0.2,0,0.2-0.2c0.2-0.1,0.2-0.3,0.1-0.5L135.8,37.9z"/>
						<path class="st1" d="M138,39.7c-0.8,0-1.4,0.7-1.4,1.5s0.6,1.5,1.4,1.5s1.4-0.7,1.4-1.5C139.4,40.5,138.8,39.7,138,39.7z"/>
						<path class="st1" d="M137.6,41.1l-3.7,4.2c0,0.2,0,0.3,0.1,0.5c0.1,0.1,0.1,0.1,0.2,0.1c0.2,0,0.2-0.1,0.3-0.1l3.7-4.2
							c0-0.2,0-0.3-0.1-0.5C138,40.9,137.7,40.9,137.6,41.1z"/>
					</g>
					<g>
						<path class="st4" d="M196.1,50.6l-21.4-7.3c-0.7-0.2-1.4,0.1-1.6,0.8L160,82.3c-0.2,0.7,0.2,1.4,0.8,1.6l21.4,7.3
							c0.7,0.2,1.4-0.1,1.6-0.8l13.1-38.2C197.1,51.6,196.8,50.9,196.1,50.6z"/>
						<path class="st5" d="M197.1,51l-21.4-7.3c-0.7-0.2-1.4,0.1-1.6,0.8L161,82.7c-0.2,0.7,0.2,1.4,0.8,1.6l21.4,7.3
							c0.7,0.2,1.4-0.1,1.6-0.8l13.1-38.2C198.1,52,197.8,51.2,197.1,51z"/>
						<path class="st6" d="M186.7,49.6l-6.9-2.3l-3.1-1h-0.1c-0.4,0-0.7,0.2-0.8,0.5l-6.5,19l-4.9,14.1c-0.2,0.3,0,0.7,0.4,0.8
							l7.9,2.7l10.2,3.5c0.4,0.2,0.8-0.1,0.9-0.4l0.4-1.2l1.9-5.4l4.1-11.8l5-14.6c0.1-0.3-0.1-0.7-0.4-1.1L186.7,49.6z"/>
						<g>
							<path class="st4" d="M173.7,84.7c-0.6-0.2-1.3,0.1-1.5,0.7c-0.2,0.7,0.1,1.3,0.7,1.5c0.5,0.3,1.2-0.1,1.5-0.7
								C174.6,85.5,174.3,84.9,173.7,84.7z"/>
						</g>
						<g>
							<path class="st4" d="M178.4,45.3c-0.2-0.1-0.5,0.1-0.6,0.3c-0.1,0.3,0.1,0.5,0.3,0.6c0.2,0,0.5,0,0.6-0.3
								C178.8,45.6,178.6,45.4,178.4,45.3z"/>
						</g>
						<path class="st7" d="M186.9,63c-0.3,1.2-1.1,2-2.1,2.5l-2.9,1.4c-1,0.5-1.3,1.7-0.9,2.6l1.4,2.9c0.5,1,0.6,2.1,0.2,3.2
							l-0.8,2.3l0.6,0.2l0.8-2.3c0.4-1.3,0.4-2.5-0.2-3.7l-1.4-2.9c-0.3-0.6,0-1.5,0.6-1.8l2.9-1.4c1.1-0.6,2-1.6,2.4-2.8l0.8-2.3
							l-0.6-0.2L186.9,63z"/>
						<path class="st7" d="M176.6,62.4c-0.5-1-0.6-2.1-0.2-3.2l0.8-2.3l-0.6-0.2l-0.8,2.3c-0.4,1.2-0.4,2.5,0.2,3.7l1.4,3
							c0.3,0.6,0,1.5-0.6,1.8l-2.9,1.4c-1.1,0.6-2,1.6-2.4,2.8l-0.8,2.3l0.6,0.2l0.8-2.4c0.3-1.1,1.1-1.9,2.1-2.4l2.9-1.4
							c1-0.5,1.3-1.7,0.9-2.6L176.6,62.4z"/>
						<path class="st8" d="M188.5,60.4l-11.7-4c-0.3-0.2-0.6,0-0.7,0.3c0,0.3,0.1,0.6,0.4,0.7l11.7,4c0.1,0,0.1,0,0.2,0
							c0.2,0,0.4-0.2,0.5-0.3C188.9,60.8,188.8,60.5,188.5,60.4z"/>
						<path class="st8" d="M182.5,77.5l-11.7-4.1c-0.3-0.1-0.6,0-0.7,0.3c0,0.3,0.1,0.6,0.4,0.7l11.7,4.1c0.1,0.1,0.1,0.1,0.2,0.1
							c0.2,0,0.5-0.1,0.5-0.4S182.8,77.6,182.5,77.5z"/>
						<path class="st9" d="M184.7,63l-6.6-2.3c-0.3,0-0.7,0.4-0.5,0.7l2.2,4.4c0.1,0.2,0.4,0.3,0.6,0.2l4.4-2.2
							C185.2,63.6,185.1,63.1,184.7,63z"/>
						<path class="st9" d="M178.1,72.7c-0.2-0.2-0.4-0.3-0.6-0.2l-1.9,0.9c-0.4,0.2-0.3,0.7,0,0.8l2.9,1c0.4,0.1,0.6-0.3,0.5-0.6
							L178.1,72.7z"/>
						<path class="st9" d="M178.4,70.7c-0.2,0-0.5,0.1-0.6,0.3c-0.1,0.3,0.1,0.5,0.3,0.6c0.2,0,0.5-0.1,0.6-0.3
							C178.8,71.1,178.6,70.8,178.4,70.7z"/>
						<path class="st9" d="M179.1,68.8c-0.2,0-0.5,0.1-0.6,0.3c-0.1,0.3,0.1,0.5,0.3,0.6c0.2,0,0.5-0.1,0.6-0.3
							C179.4,69.2,179.3,68.9,179.1,68.8z"/>
						<path class="st9" d="M179.6,67c-0.2,0-0.5,0.1-0.6,0.3c-0.1,0.3,0.1,0.5,0.3,0.6c0.2,0,0.5-0.1,0.6-0.3
							C180.1,67.3,179.9,67.1,179.6,67z"/>
						<path class="st10" d="M175.7,46.6l-6.5,19l3.5,17.7l10.2,3.5c0.4,0.2,0.8-0.1,0.9-0.4l0.4-1.2l-7.7-39.1
							C176.1,46.1,175.8,46.3,175.7,46.6z"/>
						<polygon class="st10" points="179.7,47.5 186.1,79.9 190.2,68 186.6,49.8 						"/>
					</g>
					<g>
						<path class="st11" d="M193.7,85.2l-15.3,1.5c-0.6,0-1.1,0.6-1,1.2l1.1,11.2c0.1,0.6,0.6,1.1,1.2,1l15.3-1.5
							c0.6,0,1.1-0.6,1-1.2l-1.1-11.2C194.8,85.7,194.3,85.2,193.7,85.2z"/>
						<path class="st12" d="M193.9,83.4l-15.1,2.4c-0.6,0-1,0.6-0.9,1.2l1.8,11.1c0.1,0.6,0.6,1,1.2,0.9l15.1-2.4
							c0.6,0,1-0.6,0.9-1.2l-1.8-11.1C195.1,83.8,194.4,83.3,193.9,83.4z"/>
						<path class="st13" d="M193.7,83.5l-15.1,2.4c-0.6,0-1,0.6-0.9,1.2l0.4,2.4l17.4-2.8l-0.4-2.4
							C195.1,83.8,194.4,83.3,193.7,83.5z"/>
						
							<rect x="178.2" y="88.2" transform="matrix(0.9872 -0.1597 0.1597 0.9872 -11.7469 30.9984)" class="st14" width="17.6" height="0.8"/>
						<path class="st15" d="M181.7,85.4c-0.7,0.1-1.2,0.8-1.1,1.5c0.1,0.8,0.8,1.2,1.5,1.1c0.7-0.1,1.2-0.8,1.1-1.5
							S182.4,85.3,181.7,85.4z"/>
						<path class="st15" d="M190.9,83.9c-0.7,0.1-1.2,0.8-1.1,1.5c0.1,0.8,0.8,1.2,1.5,1.1s1.2-0.8,1.1-1.5
							C192.2,84.3,191.6,83.8,190.9,83.9z"/>
						<g>
							<path class="st16" d="M182.6,84.6c-0.2-0.6-0.6-0.9-1.1-0.8c-0.6,0.2-0.9,0.6-0.8,1.1l0.3,1.9c0.1,0.5,0.5,0.8,0.9,0.8
								c0,0,0.1,0,0.2,0c0.6-0.2,0.9-0.6,0.8-1.1L182.6,84.6z"/>
							<path class="st16" d="M191.8,83.1c-0.2-0.6-0.6-0.9-1.1-0.8c-0.6,0.2-0.9,0.6-0.8,1.1l0.3,1.9c0.1,0.5,0.5,0.8,0.9,0.8h0.1
								c0.6-0.2,0.9-0.6,0.8-1.1L191.8,83.1z"/>
						</g>
						
							<rect x="180.6" y="91.3" transform="matrix(0.9871 -0.1598 0.1598 0.9871 -12.3729 30.1833)" class="st17" width="1.7" height="1.4"/>
						
							<rect x="192.3" y="89.4" transform="matrix(0.9872 -0.1598 0.1598 0.9872 -11.9231 32.0217)" class="st17" width="1.7" height="1.5"/>
						
							<rect x="189.4" y="89.9" transform="matrix(0.9872 -0.1598 0.1598 0.9872 -12.0407 31.566)" class="st17" width="1.7" height="1.5"/>
						
							<rect x="186.5" y="90.4" transform="matrix(0.9872 -0.1598 0.1598 0.9872 -12.1559 31.1088)" class="st17" width="1.7" height="1.5"/>
						
							<rect x="183.6" y="90.8" transform="matrix(0.9871 -0.1598 0.1598 0.9871 -12.2602 30.6585)" class="st17" width="1.7" height="1.5"/>
						
							<rect x="181" y="93.6" transform="matrix(0.9872 -0.1598 0.1598 0.9872 -12.7394 30.27)" class="st17" width="1.7" height="1.5"/>
						
							<rect x="192.7" y="91.8" transform="matrix(0.9871 -0.1598 0.1598 0.9871 -12.3024 32.1257)" class="st17" width="1.7" height="1.5"/>
						
							<rect x="189.7" y="92.2" transform="matrix(0.9872 -0.1598 0.1598 0.9872 -12.3967 31.6392)" class="st17" width="1.7" height="1.4"/>
						
							<rect x="186.9" y="92.7" transform="matrix(0.9871 -0.1598 0.1598 0.9871 -12.521 31.209)" class="st17" width="1.7" height="1.5"/>
						
							<rect x="184" y="93.2" transform="matrix(0.9872 -0.1598 0.1598 0.9872 -12.6355 30.7453)" class="st17" width="1.7" height="1.5"/>
						
							<rect x="181.4" y="96" transform="matrix(0.9872 -0.1598 0.1598 0.9872 -13.118 30.3673)" class="st17" width="1.7" height="1.5"/>
						
							<rect x="193.1" y="94.1" transform="matrix(0.9871 -0.1598 0.1598 0.9871 -12.6649 32.2192)" class="st17" width="1.7" height="1.5"/>
						
							<rect x="190.2" y="94.6" transform="matrix(0.9872 -0.1598 0.1598 0.9872 -12.7799 31.7553)" class="st17" width="1.7" height="1.5"/>
						
							<rect x="187.2" y="95" transform="matrix(0.9872 -0.1598 0.1598 0.9872 -12.8839 31.28)" class="st17" width="1.7" height="1.5"/>
						
							<rect x="184.3" y="95.5" transform="matrix(0.9872 -0.1598 0.1598 0.9872 -13.001 30.823)" class="st17" width="1.7" height="1.5"/>
					</g>
					<circle class="st18" cx="109.4" cy="78.3" r="3.5"/>
					<path class="st18" d="M125.2,54.9c-1.1,0-1.9,0.9-1.9,1.9c0,1.1,0.8,1.9,1.9,1.9c1,0,1.9-0.9,1.9-1.9
						C127.1,55.7,126.3,54.9,125.2,54.9z M125.2,57.6c-0.5,0-0.9-0.4-0.9-0.9s0.4-0.9,0.9-0.9s0.9,0.5,0.9,0.9
						C126.1,57.2,125.7,57.6,125.2,57.6z"/>
					<g>
						<path class="st19" d="M130.8,67.3l-17.3-8.8c-0.2-0.1-0.5-0.2-0.8-0.1c0,0.1-0.3,0.3-0.5,0.6l-4.6,9c-0.2,0.5-0.1,1.1,0.4,1.3
							l17.3,8.8c0.5,0.2,1.1,0.1,1.3-0.4l4.6-9c0.1-0.2,0.1-0.6,0.1-0.8C131.2,67.7,131.1,67.5,130.8,67.3z"/>
						<path class="st20" d="M130.9,67.4l-17.3-8.8c-0.2-0.2-0.4-0.2-0.7-0.1l4.3,9.6c0.7,1.5,2.3,2.3,3.9,2l10.3-2.1
							C131.3,67.8,131.2,67.6,130.9,67.4z"/>
					</g>
					<g>
						<path class="st21" d="M137.9,46.8c-0.1-0.2-0.2-0.3-0.4-0.4c-0.1,0-0.4,0-0.5,0l-12.5,5.3c-0.2,0-0.3,0.2-0.3,0.3
							c-0.1,0.3-0.1,0.5-0.1,0.8l2.8,6.5c0.2,0.3,0.6,0.5,0.9,0.3l12.5-5.3c0.4-0.2,0.6-0.5,0.4-1L137.9,46.8z"/>
						<path class="st22" d="M124.5,51.8c-0.2,0.1-0.3,0.2-0.3,0.4l7,2c1.1,0.3,2.3-0.2,2.8-1.2l3.5-6.5c-0.1,0-0.4,0-0.5,0
							L124.5,51.8z"/>
					</g>
					<path class="st23" d="M134.9,62.7h-0.6V62c0-0.3-0.2-0.5-0.6-0.5c-0.4,0-0.6,0.2-0.6,0.5v0.8h-0.6c-0.4,0-0.6,0.2-0.6,0.5
						s0.3,0.5,0.6,0.5h0.6v0.7c0,0.4,0.2,0.6,0.6,0.6c0.4,0,0.6-0.3,0.6-0.6v-0.7h0.6c0.3,0,0.5-0.3,0.6-0.6
						C135.5,62.9,135.2,62.7,134.9,62.7z"/>
				</g>
				<path class="st0" d="M111.6,111.6c-4.8,0-8.7,3.9-8.7,8.8c0,4.9,3.9,8.8,8.7,8.8c4.7,0,8.8-3.9,8.8-8.8
					C120.4,115.5,116.4,111.6,111.6,111.6z M111.6,125.6c-2.9,0-5.2-2.3-5.2-5.2c0-2.9,2.3-5.2,5.2-5.2c2.8,0,5.2,2.3,5.2,5.2
					C116.8,123.3,114.5,125.6,111.6,125.6z"/>
			</g>
			<path class="st24" d="M109.2,85.3c-1.7,3-2.9,6.3-3.7,9.6c-0.5,2.5-0.8,5-0.8,7.6c0,0.1,0,0.2,0.2,0.2c0.2,0,0.3-0.1,0.3-0.3
				c0-2.6,0.2-5.1,0.8-7.5c0.7-3.3,1.9-6.5,3.6-9.4c0.1-0.1,0-0.2-0.1-0.3C109.4,85.1,109.3,85.2,109.2,85.3z"/>
			<path class="st24" d="M105.4,108c-0.1,0.1-0.2,0.1-0.2,0.3c0.2,1.1,0.5,2.1,0.7,3.1c0,0.1,0.1,0.2,0.2,0.2
				c0.2-0.1,0.3-0.2,0.3-0.4c-0.3-1-0.5-2-0.7-3C105.6,108.1,105.6,108,105.4,108z"/>
			<g>
				<path class="st24" d="M139.6,70.1c-17.8,0-32.3,14.4-32.3,32.3c0,17.8,14.4,32.3,32.3,32.3c17.9,0,32.4-14.4,32.4-32.3
					C172,84.6,157.5,70.1,139.6,70.1z"/>
				<path class="st23" d="M139.6,73.4c-1.8,0-3.6,0.2-5.4,0.5c-2.7,0.5-5.2,1.4-7.6,2.6c-1.1,0.5-2.2,1.1-3.2,1.8
					c-4.4,2.8-7.9,6.9-10.2,11.6c-1.8,3.8-2.9,8.1-2.9,12.7c0,13.1,8.7,24.2,20.6,27.9c2.8,0.9,5.7,1.3,8.7,1.3
					c2.4,0,4.7-0.3,6.8-0.8c1.2-0.3,2.4-0.7,3.5-1.1c2.5-1,5-2.3,7.1-3.9c7.2-5.4,11.9-13.9,11.9-23.6
					C168.9,86.3,155.8,73.2,139.6,73.4z"/>
				<path class="st2" d="M139.5,74c-1.8,0-3.5,0.2-5.2,0.5c-2.6,0.5-5.1,1.3-7.4,2.5c-1.1,0.6-2.1,1.1-3.1,1.8
					c-4.1,2.8-7.6,6.7-9.8,11.3c-1.8,3.7-2.8,8-2.8,12.4c0,12.8,8.4,23.6,20,27.2c2.6,0.9,5.5,1.3,8.4,1.3c2.3,0,4.5-0.3,6.6-0.8
					c1.2-0.3,2.3-0.7,3.4-1.1c2.5-1,4.8-2.2,6.9-3.8c7-5.1,11.6-13.5,11.6-22.9C168.1,86.8,155.4,74,139.5,74z"/>
				<path class="st14" d="M114,90.1l17.1,39.5c2.6,0.9,5.5,1.3,8.4,1.3c2.3,0,4.5-0.3,6.6-0.8l-22.3-51.3
					C119.7,81.6,116.2,85.5,114,90.1z"/>
				<path class="st14" d="M126.9,77l22.6,52.1c2.5-0.9,4.8-2.1,6.9-3.7l-22.1-50.9C131.7,75,129.2,75.8,126.9,77z"/>
				<path class="st13" d="M154.1,93.1l-15.3,8c-0.7,0.3-1,1.2-0.6,2c0.3,0.5,0.8,0.8,1.4,0.8c0.3,0,0.5,0,0.6-0.1l15.3-8
					c0.7-0.3,1-1.2,0.6-2C155.7,93,154.9,92.7,154.1,93.1z"/>
				<path class="st25" d="M139.5,96.6c-3.3,0-5.9,2.6-5.9,5.8c0,3.2,2.6,5.8,5.9,5.8s5.9-2.6,5.9-5.8
					C145.4,99.2,142.9,96.7,139.5,96.6z"/>
				<path class="st25" d="M128.8,82.1c-0.5-0.7-1.4-0.9-2.1-0.5c-0.7,0.4-0.9,1.4-0.5,2.1l12.1,19.5c0.3,0.5,0.8,0.7,1.3,0.7
					c0.3,0,0.5,0,0.8-0.2c0.7-0.4,0.9-1.4,0.5-2.1L128.8,82.1z"/>
			</g>
			<path class="st26" d="M153.1,134.8h-27c-0.4,0-0.8,0.4-0.8,0.8c0,0.5,0.4,0.8,0.8,0.8h27c0.4,0,0.8-0.4,0.8-0.8
				C153.9,135.2,153.5,134.8,153.1,134.8z"/>
		</g>
		<g>
			<path class="st26" d="M178.4,136h-14.3c-0.4,0-0.8,0.4-0.8,0.8s0.3,0.8,0.8,0.8h14.3c0.4,0,0.8-0.4,0.8-0.8
				C179.2,136.4,178.8,136,178.4,136z"/>
			<g>
				<g>
					<polygon class="st27" points="168.1,130.1 168.8,134.2 170.3,133.9 170,129.6 					"/>
					<path class="st28" d="M174.5,135.3c-1.1-0.1-3.1-1.1-3.7-1.7c-0.2,0-0.3-0.1-0.4-0.1l-1.7-0.3c-0.2,0-0.5,0.2-0.6,0.4
						c-0.5,0.8-0.9,2.4,0.4,2.4c1.7,0,1.5-0.1,2.2-0.1s1.8,0.1,3.4,0.1C175.6,136,175.6,135.4,174.5,135.3z"/>
				</g>
				<g>
					<polygon class="st27" points="162.8,130.4 164.1,131.2 167.1,128.1 165.4,127.1 					"/>
					<path class="st28" d="M165.9,135.2c-0.7-0.7-1.3-2.9-1.4-3.8c0-0.2,0-0.3-0.1-0.4l-1.2-1.4c-0.1-0.2-0.4-0.3-0.6-0.2
						c-0.9,0.1-2.4,1-1.5,1.9c1.2,1.3,1.1,1.1,1.6,1.6s0.8,2,2.2,2.6C166.2,136.1,166.7,135.9,165.9,135.2z"/>
				</g>
				<g>
					<g>
						<path class="st29" d="M162.1,65.5c1,1.6,1.1,1.8,1.1,1.8l-1.6-6.8C161.6,60.5,161.1,63.9,162.1,65.5z"/>
						<path class="st30" d="M163.5,64.6c-0.1-0.2-0.1-0.4-0.2-0.6c0-0.4-0.1-1-0.1-1.5c0-0.6,0-1.2,0.1-1.7c0.1-1-0.6-1.8-1.5-2
							c-0.9-0.2-1.9,0.5-2,1.5c0,0.3-0.2,1.3-0.1,2.5c0,1.2,0.3,2.6,0.9,3.6c0.9,1.5,1.1,1.8,1.1,1.8c0.3,0.5,0.9,0.8,1.5,0.8
							c0.3,0,0.6,0,0.9-0.2c0.9-0.6,1.1-1.6,0.5-2.4C164.6,66.4,164.5,66.2,163.5,64.6z"/>
					</g>
					<path class="st31" d="M167,64.1h-10.4c-0.8,0-1.3,0.6-1.2,1.4c0.8,5,2.6,17.6,2.2,22.7h12.5c0,0-0.7-18.6-1.9-23.2
						C168.1,64.5,167.6,64.1,167,64.1z"/>
					<path class="st30" d="M172.2,71.7c-1.4-2.7-2.9-5.6-3.6-6.8c-0.4-0.7-1.3-1-2.1-0.6c-0.7,0.4-1,1.3-0.6,2.1
						c1.1,2,2.2,4.1,3.2,6c1.1,2.2,2.2,3.5,2.6,4.6c-0.8,0.7-2.8,0.8-4.4,0.7c-0.4-0.1-2.1-0.2-3.2,0.8c-0.4,0.4-0.9,1.2-0.9,2.3
						c0.1,0.8,0.1,1.2,0.9,1.5c0.3,0.2,0.7,0.2,1,0.2c0.8-0.1,0.9-0.6,0.9-1.5c0-0.7,0.4-1.3,0.4-1.3s2.4,0.6,4.4,0.8s2.9-0.2,3.6-1
						c0.4-0.7,0.5-1.3,0.4-1.9C174.6,76.7,173.4,74.2,172.2,71.7z"/>
					<path class="st32" d="M157.5,88.1c-1,5.4,0.6,8.2,0.6,8.2H170c0.3-4.1,0.1-8.2,0.1-8.2H157.5z"/>
					<path class="st29" d="M166.6,64.2c-0.7,0.4-1,1.4-0.6,2.1c1.1,2,2.2,4.1,3.2,6l1.6-0.3l1.4-0.3c-1.4-2.8-3-5.5-3.5-6.9
						C168.2,64,167.3,63.8,166.6,64.2z"/>
					<path class="st30" d="M156.2,64.1c-3.6,0.9-6.1,1.7-7.9,2.4c-4,1.7-3.9,2.9-3.9,3.6c0,0.8,0.1,2.2,8.8,5.3
						c0,0.2-0.2,1.2-0.4,1.6c-0.4,0.8,0,1.4,0.4,2.1c0.1,0.2,0.5,0.6,0.9,0.6c0.6,0,1.2-0.7,1.3-1.2c0.4-2,0.2-3.2,0.1-3.4
						c0,0,0-0.1-0.1-0.1c-0.1-0.1-0.1-0.2-0.1-0.2c-0.1-0.1-0.1-0.1-0.1-0.1c-0.1-0.1-0.1-0.1-0.1-0.1c-0.1-0.1-0.1-0.1-0.2-0.2
						c0,0,0,0-0.1-0.1c-0.1-0.1-0.2-0.1-0.4-0.2c-2.9-1.2-5.6-3.2-6.9-4c0.4-0.2,1-0.5,1.8-0.8c1.9-0.8,4.6-1.6,7.4-2.3
						c1-0.2,1.5-1,1.3-1.8C157.8,64.4,157,63.9,156.2,64.1z"/>
					<path class="st31" d="M168.7,64.9c-0.5-0.9-1.5-1.2-2.4-0.7c-0.8,0.5-1.2,1.1-1.1,2.4c0.1,1.1,0.5,2,2.2,5.3l1.4-0.2l1.6-0.3
						l2-0.4C170.6,67.6,168.9,65,168.7,64.9z"/>
					<path class="st32" d="M166.7,91.6c-1,0.5-1.8,1.8-1.7,2.9c0,0.3,0.1,0.6,0.2,0.8c0.3,0.8,0.7,1.4,1.1,2.1
						c3.3,6.1,6.6,12.9,6.2,15.1c-0.2,1.3-1.2,3.4-2.5,5.7c0,0,0,0.1-0.1,0.2c-1.2,2.2-2.8,4.7-4.2,6.9c0,0-0.1,0-0.1,0.1
						c-0.9,1.1-1.5,2.4-2.1,3.3l1.8,2.3c0.2-0.3,0.5-0.7,0.9-1.1c0.9-1.1,2.3-2.6,3.8-4.4c2.2-2.5,4.5-5.5,6.1-8.3
						c0.9-1.6,1.6-3,1.8-4.2c0.8-5.4-6.3-18.8-7.8-21.2C169.5,90.6,167.9,90.9,166.7,91.6z"/>
					<path class="st33" d="M165.6,125.1c0,0.3,0,0.6,0.1,0.8c0.1,1.3,0.3,2.7,0.4,3.9c0.9-1.1,2.3-2.6,3.8-4.4
						c0.1-2.4,0.1-5-0.1-7.2C168.6,120.4,167,122.9,165.6,125.1z"/>
					<path class="st32" d="M164.1,93.7c-0.6-1.2-3.6-1.6-4.9-1c-1.2,0.6-1.9,2.1-1.3,3.3c1.7,3.8,6.5,14.2,7,17.8
						c0.3,2.2,0.6,6.6,1.4,10.3c0.5,2.6,0.9,5.2,1.4,7c0.3,1.6,0.3,1.3,0.4,1.4l3-0.4c-0.1,0-0.7-12.5-1.5-18.4
						C169,108.6,164.7,95.2,164.1,93.7z"/>
					<path class="st29" d="M156.2,64.2c-3.7,0.8-6.1,1.6-7.9,2.4l1.2,2.8c1.9-0.7,4.6-1.6,7.4-2.3c0.8-0.3,1.3-1.1,1.1-1.8
						C157.8,64.5,157,64,156.2,64.2z"/>
					<path class="st31" d="M156.2,64.1c-1.6,0.2-1.8,0.1-7.4,2.3l2.4,3.3c4.3-1.5,4.6-1.6,5.7-2.2c0.8-0.5,1.5-1.3,1.2-2.2
						C157.8,64.4,157.1,63.9,156.2,64.1z"/>
					<path class="st29" d="M161.9,58.7c-0.9-0.2-1.9,0.5-2,1.5c0,0.3-0.2,1.3-0.1,2.5c0.9,0.7,2.1,1.2,3.4,1.2c0.1,0,0.1,0,0.2,0
						c-0.1-0.4-0.2-0.9-0.1-1.5c0-0.6,0-1.2,0.1-1.7C163.5,59.7,162.8,58.9,161.9,58.7z"/>
					<path class="st30" d="M162.8,51.6c-3,0-6.1,3-5.6,6c0.5,3.3,2.5,5.6,5.6,5.6c3.1,0,4.9-2.4,5.6-5.6
						C169.1,54.6,165.9,51.5,162.8,51.6z"/>
					<path class="st34" d="M159.6,96v-0.1v-0.1c-0.2-0.7-1.1-3.4-0.3-7.7l-0.2-0.1c-0.8,4.3,0.1,7,0.3,7.8v0.1
						C159.5,95.9,159.5,95.9,159.6,96c1.5,3.9,6.1,14.6,6.5,18.3c0.7,5,1.9,13,2.8,18.2v0.1l0.2,0.1v-0.1
						c-0.9-5.3-2.2-13.2-2.8-18.2C165.8,110.7,161.3,99.8,159.6,96z"/>
				</g>
				<path class="st35" d="M164.8,64.2v-0.1C164.8,64.1,164.8,64.2,164.8,64.2L164.8,64.2z"/>
				<path class="st35" d="M158.6,64.4c0.7,1.2,2.5,1.8,3.9,1.8c1.9,0,2.3-1.2,2.3-2h-6.3L158.6,64.4z"/>
				<path class="st30" d="M162.5,65.7c1.4,0,1.8-0.7,1.8-1.6H159C159.6,65,161.1,65.7,162.5,65.7z"/>
				<g>
					<path class="st36" d="M165.8,77.7c0.9,1.3,0.8,2.1,0.8,2.1l0.9,0.2c0-0.1,0.2-1.2-0.9-2.8L165.8,77.7z"/>
					<path class="st37" d="M165.9,77.2c-0.5,0.1-0.6,0.6-0.3,1c0.3,0.3,1,0.4,1.4,0.2c0.4-0.2,0.6-0.7,0.3-1
						C167,77.1,166.3,77,165.9,77.2z"/>
				</g>
				<path class="st38" d="M161.5,50.6c-0.4,0-1.4,0.2-1.8,0.9c-0.1-0.5,0-0.8,0-0.8c-0.4,0.5-0.4,0.8-0.4,1.1
					c-0.2-0.3-0.4-0.7-0.4-0.7c-0.1,0.5,0.1,0.8,0.2,0.9c-1.1,0.2-2.6,1.9-2.1,5.2c0.2,1.5,3.4,0.3,4.4-1.1c0.6,1,1.9,1.2,1.9,1.2
					c-0.4-0.5-0.8-1-1.1-1.7c1.8,1,4.1,2.2,4.3,2.9c0,0,0.5-1.2,0.1-1.8c0,0,1.4,0.3,1.6,1.7c0.1-0.1,1.9-2,0-4.9
					C166.5,50.7,162.3,50.5,161.5,50.6z"/>
				
					<rect x="164.7" y="88" transform="matrix(0.9872 -0.1595 0.1595 0.9872 -12.6095 27.4749)" class="st34" width="0.3" height="8.6"/>
				<path class="st34" d="M165.3,87.9l-0.2,0.1l0.9,5.4c0.1,0.3,0,0.6-0.1,0.8c-0.2,0.4-0.8,0.5-0.8,0.5l0.1,0.2
					c0,0,0.6-0.1,0.8-0.5c0.2-0.3,0.3-0.7,0.2-1.1L165.3,87.9z"/>
				<path class="st30" d="M158.3,56.3c-0.6,0-1.1,0.5-1.3,1s-0.2,1.2,0,1.7c0.3,0.6,1.1,0.5,1.4,0l0.8-1.6
					C159.4,56.8,158.9,56.2,158.3,56.3z"/>
			</g>
		</g>
	</g>
</g>
</svg>
